<svg width="132" height="132" viewBox="0 0 132 132" fill="none" xmlns="http://www.w3.org/2000/svg">
<path d="M127.742 65.8182C127.742 99.9492 100.138 127.688 66.0002 127.688C31.8623 127.688 4.25823 99.9493 4.258 65.8181C4.25816 33.321 29.2819 6.618 61.1437 4.13553L65.3205 0.266391C65.7039 -0.0887763 66.2964 -0.0887763 66.6799 0.266391L70.8586 4.13553C102.719 6.61922 127.742 33.3219 127.742 65.8182ZM112.742 65.8182C112.742 39.9325 91.815 18.9472 66.0002 18.9471C40.1853 18.9471 19.2582 39.9324 19.258 65.8181L19.2619 66.4236C19.5854 92.0303 40.3869 112.688 66.0002 112.688C91.6133 112.688 112.415 92.0302 112.738 66.4236L112.742 65.8182Z" fill="white"/>
</svg>
