<svg width="123" height="125" viewBox="0 0 123 125" fill="none" xmlns="http://www.w3.org/2000/svg">
<path d="M110.748 38.2637C116.573 49.3135 118.4 62.0087 115.922 74.2315C113.445 86.4543 106.814 97.4667 97.1343 105.431C87.4547 113.395 75.3119 117.829 62.7319 117.995C50.1518 118.161 37.8935 114.048 28.0034 106.342L27.0854 105.61C17.6851 97.9577 11.1004 87.4229 8.38328 75.6495L8.13328 74.5089C5.67566 62.702 7.23706 50.4073 12.5913 39.5577C18.1183 28.3585 27.3532 19.3753 38.7554 14.1065L43.0688 23.2715C28.2438 30.3486 17.9995 45.4773 17.9995 63.0001C17.9995 87.3004 37.6992 107 61.9995 107C86.3 107 105.999 87.3006 105.999 63.0001C105.999 45.0542 95.2554 29.6197 79.8491 22.7735L83.9087 13.5108C95.0881 18.3218 104.328 26.6714 110.191 37.2344L110.748 38.2637Z" fill="white"/>
<rect x="123" y="59" width="9" height="25" rx="4.5" transform="rotate(90 123 59)" fill="white"/>
<rect x="25" y="59" width="9" height="25" rx="4.5" transform="rotate(90 25 59)" fill="white"/>
<rect x="66" y="125" width="9" height="26" rx="4.5" transform="rotate(-180 66 125)" fill="white"/>
<path d="M60.5 25C60.5 25.8284 61.1716 26.5 62 26.5C62.8285 26.5 63.5 25.8284 63.5 25L62 25L60.5 25ZM62 5.3765e-06L53.3398 15L70.6603 15L62 5.3765e-06ZM62 25L63.5 25L63.5 13.5L62 13.5L60.5 13.5L60.5 25L62 25Z" fill="white"/>
<rect x="66" y="9.00001" width="18" height="8" rx="1" transform="rotate(90 66 9.00001)" fill="white"/>
</svg>
