<svg width="153" height="153" viewBox="0 0 153 153" fill="none" xmlns="http://www.w3.org/2000/svg">
<path d="M81.1135 2.72727V10H80.105L76.4082 4.66619H76.3407V10H75.2434V2.72727H76.2591L79.9594 8.06818H80.0268V2.72727H81.1135Z" fill="white"/>
<path d="M146.799 82V74.7273H151.359V75.6719H147.896V77.8878H151.121V78.8288H147.896V81.0554H151.401V82H146.799Z" fill="white"/>
<path d="M2.22301 82L0.205966 74.7273H1.36009L2.77699 80.3594H2.84446L4.31818 74.7273H5.46165L6.93537 80.3629H7.00284L8.41619 74.7273H9.57386L7.55327 82H6.44886L4.91832 76.5526H4.86151L3.33097 82H2.22301Z" fill="white"/>
<path d="M79.2101 145.638C79.1722 145.302 79.0159 145.041 78.7413 144.857C78.4667 144.67 78.1211 144.576 77.7044 144.576C77.4061 144.576 77.148 144.623 76.9302 144.718C76.7124 144.81 76.5432 144.938 76.4224 145.102C76.3041 145.263 76.2449 145.446 76.2449 145.652C76.2449 145.825 76.2851 145.974 76.3656 146.099C76.4485 146.225 76.5562 146.33 76.6888 146.415C76.8237 146.498 76.9681 146.568 77.122 146.625C77.2759 146.679 77.4238 146.724 77.5659 146.76L78.2761 146.945C78.5081 147.001 78.7461 147.078 78.9899 147.175C79.2337 147.272 79.4598 147.4 79.6682 147.559C79.8765 147.718 80.0446 147.914 80.1724 148.148C80.3026 148.383 80.3677 148.663 80.3677 148.99C80.3677 149.402 80.2612 149.768 80.0481 150.087C79.8374 150.407 79.5309 150.659 79.1284 150.844C78.7283 151.028 78.2442 151.121 77.676 151.121C77.1315 151.121 76.6604 151.034 76.2626 150.862C75.8649 150.689 75.5536 150.444 75.3287 150.126C75.1038 149.807 74.9795 149.428 74.9558 148.99H76.0567C76.078 149.253 76.1632 149.472 76.3123 149.647C76.4639 149.82 76.6568 149.949 76.8912 150.034C77.1279 150.117 77.3872 150.158 77.6689 150.158C77.979 150.158 78.2548 150.11 78.4963 150.013C78.7401 149.913 78.9319 149.776 79.0716 149.601C79.2113 149.423 79.2811 149.216 79.2811 148.979C79.2811 148.764 79.2195 148.588 79.0964 148.45C78.9757 148.313 78.8112 148.199 78.6028 148.109C78.3969 148.019 78.1637 147.94 77.9032 147.871L77.0439 147.637C76.4615 147.478 75.9998 147.245 75.6589 146.938C75.3204 146.63 75.1511 146.223 75.1511 145.716C75.1511 145.297 75.2648 144.931 75.492 144.619C75.7193 144.306 76.0271 144.063 76.4153 143.891C76.8036 143.715 77.2416 143.628 77.7292 143.628C78.2217 143.628 78.6561 143.714 79.0325 143.887C79.4113 144.06 79.7096 144.298 79.9274 144.601C80.1452 144.902 80.2588 145.247 80.2683 145.638H79.2101Z" fill="white"/>
</svg>
