<svg width="173" height="173" viewBox="0 0 173 173" fill="none" xmlns="http://www.w3.org/2000/svg">
<path d="M86.0107 0C94.295 3.62117e-07 101.011 6.71573 101.011 15V49.7988L125.617 25.1934C131.475 19.3355 140.972 19.3355 146.83 25.1934C152.688 31.0512 152.688 40.5484 146.83 46.4062L122.224 71.0127H157.024C165.309 71.0128 172.024 77.7285 172.024 86.0127C172.024 94.2969 165.309 101.013 157.024 101.013H122.224L146.83 125.619C152.688 131.477 152.688 140.975 146.83 146.833C140.972 152.691 131.474 152.691 125.616 146.833L101.011 122.227V157.024C101.011 165.309 94.2949 172.024 86.0107 172.024C77.7265 172.024 71.0109 165.309 71.0107 157.024V122.226L46.4043 146.833C40.5464 152.691 31.0483 152.691 25.1904 146.833C19.3326 140.975 19.3327 131.477 25.1904 125.619L49.7969 101.013H15C6.71573 101.013 6.69529e-06 94.297 0 86.0127C7.24234e-07 77.7284 6.71573 71.0127 15 71.0127H49.7969L25.1904 46.4062C19.3326 40.5484 19.3327 31.0512 25.1904 25.1934C31.0483 19.3355 40.5455 19.3355 46.4033 25.1934L71.0107 49.7998V15C71.0107 6.71573 77.7265 -7.74181e-09 86.0107 0Z" fill="url(#paint0_linear_44_513)"/>
<defs>
<linearGradient id="paint0_linear_44_513" x1="24.557" y1="137.21" x2="187.937" y2="-0.689082" gradientUnits="userSpaceOnUse">
<stop stop-color="#68717E"/>
<stop offset="1" stop-color="#DAE3EC"/>
</linearGradient>
</defs>
</svg>
